<svg height="512pt" viewBox="0 -101 512 512" width="512pt" xmlns="http://www.w3.org/2000/svg"><path d="m62.554688 134.355469c1.34375-.46875 2.183593-1.769531 2.078124-3.183594-.074218-.9375-.113281-1.882813-.113281-2.835937 0-20.941407 17.003907-37.914063 37.980469-37.914063.195312 0 .390625.011719.585938.015625 1.941406-11.039062 8.660156-20.433594 17.957031-25.972656.832031-.496094 1.378906-1.367188 1.453125-2.328125 1.300781-16.683594 15.265625-29.816407 32.308594-29.816407 8.101562 0 15.503906 2.96875 21.1875 7.871094 1.023437.882813 2.492187 1.019532 3.644531.308594 5.78125-3.554688 12.585937-5.609375 19.875-5.609375.734375 0 1.464843.019531 2.191406.0625 1.15625.070313 2.253906-.515625 2.832031-1.519531 6.550782-11.398438 18.851563-19.078125 32.957032-19.078125 5.78125 0 11.257812 1.296875 16.160156 3.605469 1.40625.660156 3.058594.207031 3.921875-1.082032 6.808593-10.171875 18.410156-16.87499975 31.589843-16.87499975 14.359376 0 26.855469 7.95312475 33.3125 19.68749975.5625 1.027344 1.671876 1.628906 2.84375 1.574219.605469-.03125 1.210938-.046875 1.824219-.046875 20.972657 0 37.976563 16.972656 37.976563 37.914062 0 .25-.011719.496094-.019532.746094h.019532c20.039062 0 36.449218 15.488282 37.878906 35.125.113281 1.550782 1.328125 2.773438 2.882812 2.882813 17.832032 1.289062 32.238282 14.871093 34.785157 32.289062.195312 1.320313 1.214843 2.363281 2.53125 2.582031 18.246093 3.019532 32.097656 19.023438 31.707031 38.183594-.421875 20.738282-17.859375 37.121094-38.640625 37.121094h-360.457031c-21.078125 0-38.699219-16.824219-38.722656-37.867188-.019532-16.582031 10.628906-30.675781 25.46875-35.839843zm0 0" fill="#de9962"/><path d="m443.199219 132.753906c-1.316407-.21875-2.339844-1.257812-2.53125-2.578125-2.550781-17.421875-16.957031-31.003906-34.789063-32.289062-1.550781-.113281-2.769531-1.335938-2.882812-2.886719-1.425782-19.636719-17.839844-35.125-37.875-35.125-.007813 0-.015625 0-.019532 0 .003907-.25.019532-.496094.019532-.746094 0-20.9375-17.003906-37.910156-37.980469-37.910156-.613281 0-1.21875.011719-1.824219.042969-1.171875.054687-2.277344-.546875-2.84375-1.574219-6.457031-11.734375-18.953125-19.6875-33.3125-19.6875-5.5 0-10.722656 1.183594-15.441406 3.285156 7.589844 3.382813 13.867188 9.167969 17.847656 16.402344.566406 1.027344 1.671875 1.628906 2.84375 1.574219.605469-.03125 1.214844-.042969 1.824219-.042969 20.058594 0 36.609375 15.554688 37.886719 35.421875.121094 1.828125 1.511718 3.335937 3.316406 3.652344 8.332031 1.453125 30.136719 7.800781 34.65625 34.703125.25 1.496094 1.671875 2.792968 3.183594 2.914062 17.6875 1.417969 31.949218 14.941406 34.484375 32.265625.191406 1.320313 1.214843 2.359375 2.53125 2.578125 18.246093 3.023438 32.097656 19.027344 31.707031 38.183594-.421875 20.742188-17.859375 37.125-38.640625 37.125h30.90625c20.777344 0 38.21875-16.382812 38.640625-37.125.390625-19.160156-13.460938-35.160156-31.707031-38.183594zm0 0" fill="#d48b53"/><path d="m496.550781 195.699219h-481.101562c-8.53125 0-15.449219-6.917969-15.449219-15.449219s6.917969-15.449219 15.449219-15.449219h481.101562c8.53125 0 15.449219 6.917969 15.449219 15.449219s-6.917969 15.449219-15.449219 15.449219zm0 0" fill="#ebe3d4"/><path d="m496.546875 164.800781h-30.90625c8.535156 0 15.453125 6.917969 15.453125 15.449219s-6.917969 15.449219-15.453125 15.449219h30.90625c8.535156 0 15.453125-6.917969 15.453125-15.449219s-6.917969-15.449219-15.453125-15.449219zm0 0" fill="#d9d2c4"/><path d="m446.175781 309h-380.351562c-9.664063 0-18.03125-6.714844-20.117188-16.148438l-21.496093-97.152343h463.578124l-21.496093 97.152343c-2.085938 9.433594-10.453125 16.148438-20.117188 16.148438zm0 0" fill="#fff7e6"/><path d="m456.886719 195.699219-21.5 97.152343c-2.085938 9.433594-10.453125 16.148438-20.117188 16.148438h30.90625c9.664063 0 18.03125-6.714844 20.117188-16.148438l21.496093-97.152343zm0 0" fill="#ebe3d4"/><g fill="#ffb300"><path d="m194.679688 104.734375c0-8.53125-10.148438-15.449219-22.664063-15.449219s-22.664063 6.917969-22.664063 15.449219 10.148438 15.449219 22.664063 15.449219 22.664063-6.917969 22.664063-15.449219zm0 0"/><path d="m293.722656 62.289062c0-8.535156-10.148437-15.449218-22.664062-15.449218s-22.664063 6.914062-22.664063 15.449218c0 8.53125 10.148438 15.449219 22.664063 15.449219s22.664062-6.917969 22.664062-15.449219zm0 0"/><path d="m360.429688 120.9375c0-8.53125-10.148438-15.449219-22.664063-15.449219-12.519531 0-22.664063 6.917969-22.664063 15.449219 0 8.535156 10.144532 15.449219 22.664063 15.449219 12.515625 0 22.664063-6.914063 22.664063-15.449219zm0 0"/></g></svg>