<svg width="295" height="311" xmlns="http://www.w3.org/2000/svg"><g fill="none" fill-rule="evenodd"><path d="M143.848 78l-20.494 11.67a12.15 12.15 0 01-7.365 1.512l-42.843-4.808L71 99.436l48.098 5.486c1.88.214 3.784-.013 5.558-.662L155 93.157 143.848 78z" fill="#FBC4B5"/><path d="M72.464 98.32l47.033 5.461c1.705.198 3.46-.014 5.07-.614l29.051-10.822-9.77-13.52-19.681 11.41a13.134 13.134 0 01-8.026 1.678l-41.87-4.785-1.807 11.192zm48.28 7.68c-.498 0-.997-.028-1.492-.086L70 100.194l2.49-15.43 43.892 5.016c2.315.264 4.7-.234 6.72-1.405L144.444 76 157 93.374l-31.692 11.806a13.11 13.11 0 01-4.564.82z" fill="#424243"/><path d="M79.555 229.336L89 110c-17.337 0-32.122 12.53-34.929 29.602l-11.997 56.491a40.628 40.628 0 00-1.555-.038C18.693 196.055 1 213.71 1 235.489l8.353.399 28.126-18.155-1.267 5.964L78.79 239l.315-3.976.932.465a39.68 39.68 0 00-.482-6.153" fill="#FDD365"/><path d="M0 109.032h90.891v131.761H0z"/><path d="M37.806 223.285l40.661 14.531.332-4.168.768.38a38.614 38.614 0 00-.431-4.235l-.02-.125.01-.126 9.42-118.34c-16.495.54-30.248 12.454-32.94 28.726l-.009.05-12.272 57.464-.913-.036a40.097 40.097 0 00-1.525-.038c-21.005 0-38.158 16.683-38.707 37.396l7.02.334 30.226-19.4-1.62 7.587zm42.598 17.508l-45.11-16.12.932-4.36-26.434 16.965L0 236.813v-1.025c0-22.37 18.342-40.57 40.887-40.57.235 0 .468.004.696.01l11.89-55.673c2.938-17.687 18.178-30.523 36.246-30.523h1.172l-9.594 120.554c.317 2.053.478 4.139.478 6.202v1.74l-1.07-.53-.301 3.795z" fill="#444445"/><path d="M220.552 168h-88.725l-8.132 8.586c-2.105 1.061-1.35 4.241 1.006 4.241 14.966 0 27.098 12.154 27.098 27.148 0 14.993-12.133 27.147-27.098 27.147H70L72.854 248h110.835l19.655-21.842 6.768-5.934-.26 1.302 24.66 1.61 15.925 19.648h17.067c10.221 0 15.34-12.38 8.113-19.62 0 0-6.645-11.198-21.584-28.69C241.19 179.435 220.553 168 220.553 168" fill="#FDD365"/><path d="M74.05 246.86h109.267l19.337-21.494 9.187-8.058-.64 3.207 23.856 1.558 15.867 19.581h16.519c4.255 0 7.92-2.444 9.566-6.378 1.663-3.975.807-8.338-2.234-11.384l-.094-.095-.068-.115c-.066-.112-6.77-11.316-21.433-28.492-11.81-13.831-30.546-24.723-32.878-26.05h-87.798l-7.926 8.37-.168.085c-.607.306-.711.882-.606 1.318.05.21.28.892 1.124.892 15.504 0 28.118 12.637 28.118 28.17 0 15.533-12.614 28.17-28.118 28.17H71.675l2.374 10.715zM184.277 249H72.322L69 234.005h55.928c14.319 0 25.968-11.677 25.968-26.03 0-14.353-11.65-26.03-25.968-26.03-1.56 0-2.852-1.019-3.215-2.534-.35-1.456.269-2.888 1.545-3.627l8.318-8.784h89.288l.245.135c.207.115 20.913 11.683 33.71 26.67 13.997 16.395 20.822 27.433 21.575 28.673 3.588 3.667 4.585 8.873 2.6 13.62-1.986 4.747-6.412 7.696-11.551 7.696h-17.547l-15.92-19.648-24.831-1.621-4.975 4.362L184.278 249z" fill="#444445"/><path d="M221 177h-97c0-12.893 12.167-17 27.177-17h50.033c10.93 0 19.79 7.611 19.79 17" fill="#C2B49B"/><path d="M125.542 175.478h93.89c-1.015-7.841-8.728-13.956-18.06-13.956h-50.315c-16.004 0-24.576 4.692-25.515 13.956zM223 179H122v-1.761c0-8.777 5.041-19.239 29.057-19.239h50.314c11.927 0 21.629 8.63 21.629 19.239V179z" fill="#424243"/><path d="M276.514 177h-57.029c-3.03 0-5.485-2.462-5.485-5.5 0-3.037 2.456-5.5 5.485-5.5h57.03c3.029 0 5.485 2.463 5.485 5.5 0 3.038-2.456 5.5-5.486 5.5" fill="#C2B49B"/><path d="M220.07 168.361c-2.026 0-3.675 1.633-3.675 3.639s1.649 3.639 3.675 3.639h55.86c2.026 0 3.675-1.633 3.675-3.64 0-2.005-1.649-3.638-3.675-3.638h-55.86zM275.93 179h-55.86c-3.898 0-7.07-3.14-7.07-7s3.172-7 7.07-7h55.86c3.898 0 7.07 3.14 7.07 7s-3.172 7-7.07 7z" fill="#424243"/><path d="M271 219H152l1.033-2.375c.037-.083.066-.168.088-.255l.606-2.37H267.29l3.711 5z" fill="#FFF"/><path d="M221.5 269.706c-11.159 0-20.205-9.047-20.205-20.206 0-11.159 9.046-20.206 20.205-20.206 11.16 0 20.206 9.047 20.206 20.206 0 11.16-9.047 20.206-20.206 20.206m0-56.706c-20.158 0-36.5 16.342-36.5 36.5 0 20.159 16.342 36.5 36.5 36.5s36.5-16.341 36.5-36.5c0-20.158-16.342-36.5-36.5-36.5" fill="#6D6D6D"/><path d="M220.5 230.859c-10.279 0-18.641 8.362-18.641 18.641 0 10.279 8.362 18.641 18.641 18.641 10.279 0 18.641-8.362 18.641-18.641 0-10.28-8.362-18.641-18.641-18.641m0 40.721c-12.175 0-22.08-9.905-22.08-22.08 0-12.175 9.905-22.08 22.08-22.08 12.175 0 22.08 9.905 22.08 22.08 0 12.175-9.905 22.08-22.08 22.08m0-57.14c-19.333 0-35.06 15.727-35.06 35.06 0 19.333 15.727 35.06 35.06 35.06 19.333 0 35.06-15.727 35.06-35.06 0-19.333-15.727-35.06-35.06-35.06m0 73.56c-21.229 0-38.5-17.271-38.5-38.5 0-21.23 17.271-38.5 38.5-38.5s38.5 17.27 38.5 38.5c0 21.229-17.271 38.5-38.5 38.5" fill="#424243"/><path d="M111.855 139.949c-4.891 1.547-8.088 6.597-9.413 11.312-2.4 8.532-1.14 18.551-.874 27.323.268 8.819.66 17.639.66 26.462V216h24.531c0-9.504-.066-24.046-.14-33.55-.037-4.672-.545-9.583-.11-14.233.266-2.848 1.662-5.225 5.078-4.682 8.26 1.306 16.284 1.468 24.63 1.855 10.08.468 19.736.36 28.732-4.476C192.567 156.82 198 149.627 198 141.166a8.94 8.94 0 00-.162-1.646h-38.914c-9.636 0-19.27-.051-28.907-.076-5.88-.015-12.146-1.231-17.907.428-.086.024-.17.05-.255.077" fill="#5B5B5B"/><path d="M103.346 215.84h22.114a5350.166 5350.166 0 00-.138-32.827 147.973 147.973 0 00-.138-4.724c-.127-3.225-.26-6.56.034-9.774.2-2.183.958-3.85 2.194-4.824 1.073-.844 2.436-1.138 4.054-.876 6.819 1.103 13.391 1.388 20.35 1.69 1.285.056 2.575.112 3.873.174 9.243.439 19.006.46 27.84-4.395 7.728-4.249 12.341-11.357 12.341-19.015a7.37 7.37 0 00-.023-.584h-37.532c-6.273 0-12.651-.022-18.819-.045-3.25-.011-6.501-.023-9.753-.031-1.733-.005-3.517-.116-5.244-.224-4.083-.257-8.306-.52-12.155.613-.076.022-.15.046-.225.07-4.582 1.483-7.447 6.498-8.601 10.696-1.837 6.681-1.449 14.3-1.073 21.667.1 1.952.193 3.797.248 5.633.063 2.14.134 4.28.205 6.421.22 6.67.448 13.567.448 20.362v9.993zM127.59 218h-26.374v-12.153c0-6.759-.227-13.637-.447-20.29-.07-2.143-.142-4.286-.205-6.428-.054-1.813-.148-3.646-.246-5.587-.384-7.54-.782-15.337 1.148-22.358 1.988-7.232 6.472-11.03 10.006-12.174.093-.03.185-.059.278-.086 4.205-1.239 8.615-.962 12.881-.696 1.695.106 3.448.216 5.118.22 3.252.01 6.503.02 9.755.032 6.166.023 12.541.045 18.811.045h39.346l.161.884c.12.655.178 1.264.178 1.86 0 8.463-5.03 16.282-13.456 20.913-9.315 5.121-19.412 5.108-28.955 4.654-1.295-.06-2.582-.117-3.864-.172-7.022-.305-13.655-.593-20.595-1.716-1.027-.166-1.815-.019-2.412.45-.958.755-1.279 2.22-1.38 3.317-.28 3.071-.15 6.333-.025 9.487.062 1.578.127 3.21.139 4.794.067 8.814.138 23.699.138 33.924V218z" fill="#404041"/><path d="M192.156 136.34H160.325c-5.153 0-10.998-.984-15.987.394-3.084.851-7.085 3.5-7.193 7.044 0 .017-15.571-.252-17-.057-4.077.558-8.204 2.41-10.38 6.039-3.692 6.15-2.737 13.695-2.405 20.515.603 12.401.138 24.884.138 37.297V219h24.206c0-9.916-.065-19.83-.138-29.746-.036-4.875-.538-9.998-.109-14.85.263-2.972 1.64-5.452 5.01-4.885 8.151 1.363 16.069 1.531 24.303 1.936 9.948.488 19.475.375 28.352-4.67C196.64 162.513 202 155.009 202 146.18c0-5.435-4.407-9.84-9.844-9.84" fill="#6D6E6F"/><path d="M123.671 144.787c-1.712 0-2.999.017-3.329.062-4.346.594-7.84 2.605-9.588 5.515-3.097 5.16-2.731 11.448-2.377 17.528.046.788.092 1.571.13 2.344.42 8.659.32 17.48.224 26.011-.043 3.697-.086 7.52-.086 11.27v10.332h22.016c-.005-9.722-.07-19.453-.138-28.608-.011-1.597-.075-3.26-.137-4.87-.127-3.318-.26-6.75.033-10.056.202-2.285.984-4.015 2.26-5.001 1.066-.824 2.408-1.107 3.993-.841 6.792 1.136 13.342 1.429 20.276 1.74 1.28.058 2.568.115 3.863.179 9.205.451 18.93.474 27.724-4.522 7.71-4.38 12.313-11.72 12.313-19.632 0-4.823-3.927-8.747-8.753-8.747h-31.78c-1.523 0-3.126-.085-4.676-.168-3.753-.2-7.635-.407-11 .522-2.6.718-6.303 3.062-6.394 6.028-.05 1.057-1.032 1.045-1.617 1.039l-1.428-.02c-2.327-.03-7.887-.105-11.529-.105zM106.493 220v-12.483c0-3.762.043-7.591.086-11.294.096-8.5.195-17.288-.223-25.882-.037-.767-.082-1.542-.127-2.324-.356-6.108-.76-13.03 2.68-18.76 2.854-4.754 8.206-6.137 11.141-6.54 1.047-.143 7.913-.072 15.179.026l.988.012c.774-3.722 4.974-6.19 7.849-6.983 3.704-1.023 7.763-.806 11.688-.597 1.592.085 3.095.165 4.56.165h31.781c6.013 0 10.905 4.89 10.905 10.898 0 8.696-5.01 16.734-13.402 21.501-9.297 5.282-19.37 5.267-28.892 4.8-1.293-.063-2.577-.12-3.855-.178-7-.314-13.613-.61-20.535-1.767-.981-.165-1.74-.027-2.32.421-.779.601-1.288 1.84-1.433 3.489-.28 3.17-.152 6.533-.027 9.785.063 1.626.127 3.306.14 4.935.07 9.498.137 19.613.137 29.7V220h-26.32z" fill="#404041"/><path d="M113.253 229H83.747C82.23 229 81 227.88 81 226.496v-.576c0-3.822 3.399-6.92 7.59-6.92h24.663c1.517 0 2.747 1.121 2.747 2.504v4.992c0 1.383-1.23 2.504-2.747 2.504" fill="#716658"/><path d="M88.64 220.158c-3.566 0-6.468 2.882-6.468 6.424v.624c0 .902.739 1.636 1.648 1.636h29.36c.909 0 1.648-.734 1.648-1.636v-5.412c0-.902-.74-1.636-1.648-1.636H88.64zM113.18 231H83.82c-2.106 0-3.82-1.702-3.82-3.794v-.624c0-4.732 3.876-8.582 8.64-8.582h24.54c2.106 0 3.82 1.702 3.82 3.794v5.412c0 2.092-1.714 3.794-3.82 3.794z" fill="#424243"/><path d="M88.2 220.364c-3.333 0-6.044 2.973-6.044 6.627 0 .907.672 1.645 1.499 1.645h29.69c.827 0 1.5-.738 1.5-1.645v-4.982c0-.907-.673-1.645-1.5-1.645H88.2zM113.345 231H83.655C81.64 231 80 229.201 80 226.991c0-4.958 3.678-8.991 8.2-8.991h25.146c2.014 0 3.654 1.8 3.654 4.009v4.982c0 2.21-1.64 4.009-3.654 4.009z" fill="#464647"/><path d="M128.041 233H93.96c-1.635 0-2.959-1.309-2.959-2.923 0-4.46 3.66-8.077 8.175-8.077h28.866c1.634 0 2.959 1.308 2.959 2.923v5.154c0 1.614-1.325 2.923-2.959 2.923" fill="#716658"/><path d="M98.43 223.085c-4.002 0-7.259 3.128-7.259 6.972 0 1.024.868 1.858 1.934 1.858h34.79c1.066 0 1.934-.834 1.934-1.858v-5.114c0-1.024-.868-1.858-1.935-1.858H98.43zM127.894 234H93.105c-2.263 0-4.105-1.77-4.105-3.943 0-4.994 4.23-9.057 9.43-9.057h29.464c2.264 0 4.106 1.769 4.106 3.943v5.114c0 2.174-1.842 3.943-4.106 3.943z" fill="#424243"/><path d="M98.75 221.545c-3.963 0-7.187 3.202-7.187 7.138 0 .976.8 1.771 1.783 1.771h35.308a1.78 1.78 0 001.783-1.771v-5.366c0-.977-.8-1.772-1.783-1.772H98.75zM128.654 233H93.346C90.95 233 89 231.063 89 228.683c0-5.34 4.374-9.683 9.75-9.683h29.904c2.396 0 4.346 1.937 4.346 4.317v5.366c0 2.38-1.95 4.317-4.346 4.317z" fill="#464647"/><path d="M186.36 140H151.64c-9.742 0-17.639-7.933-17.639-17.72V65.72c0-9.787 7.897-17.72 17.639-17.72C180.557 48 204 71.55 204 100.6v21.68c0 9.787-7.897 17.72-17.64 17.72" fill="#FB8D62"/><path d="M151.671 49.142c-9.12 0-16.54 7.456-16.54 16.62v56.475c0 9.165 7.42 16.621 16.54 16.621h34.657c9.12 0 16.54-7.456 16.54-16.621v-21.648c0-28.368-22.966-51.447-51.197-51.447M186.328 141h-34.657C141.376 141 133 132.583 133 122.237V65.763C133 55.417 141.376 47 151.671 47 181.077 47 205 71.04 205 100.589v21.648c0 10.346-8.377 18.763-18.672 18.763" fill="#424243"/><path d="M43.5 269.706c-11.16 0-20.206-9.047-20.206-20.206 0-11.159 9.047-20.206 20.206-20.206 11.159 0 20.205 9.047 20.205 20.206 0 11.16-9.046 20.206-20.205 20.206m0-56.706C23.342 213 7 229.342 7 249.5 7 269.66 23.342 286 43.5 286S80 269.659 80 249.5c0-20.158-16.342-36.5-36.5-36.5" fill="#6D6D6D"/><path d="M43.5 230.859c-10.28 0-18.642 8.362-18.642 18.641 0 10.279 8.363 18.641 18.642 18.641 10.278 0 18.641-8.362 18.641-18.641 0-10.28-8.363-18.641-18.641-18.641m0 40.721c-12.176 0-22.08-9.905-22.08-22.08 0-12.175 9.904-22.08 22.08-22.08 12.175 0 22.08 9.905 22.08 22.08 0 12.175-9.905 22.08-22.08 22.08m0-57.14c-19.333 0-35.06 15.727-35.06 35.06 0 19.333 15.727 35.06 35.06 35.06 19.332 0 35.06-15.727 35.06-35.06 0-19.333-15.728-35.06-35.06-35.06m0 73.56C22.27 288 5 270.729 5 249.5 5 228.27 22.271 211 43.5 211c21.228 0 38.5 17.27 38.5 38.5 0 21.229-17.272 38.5-38.5 38.5" fill="#424243"/><path d="M75.954 117H64.046C55.184 117 48 109.837 48 101s7.184-16 16.046-16h11.908C84.816 85 92 92.163 92 101s-7.184 16-16.046 16" fill="#FDD365"/><path d="M65.068 86.152c-8.22 0-14.908 6.66-14.908 14.848 0 8.187 6.688 14.848 14.908 14.848h11.864c8.22 0 14.908-6.66 14.908-14.848 0-8.187-6.687-14.848-14.908-14.848H65.068zM76.932 118H65.068C55.657 118 48 110.374 48 101c0-9.374 7.657-17 17.068-17h11.864C86.343 84 94 91.626 94 101c0 9.374-7.657 17-17.068 17z" fill="#444445"/><path fill="#FFF" d="M45 193h35.659l.341-4H46.087z"/><path d="M0 311h295V0H0z"/><path fill="#FDD365" d="M215 165h79V87h-79z"/><path d="M216.156 164.844h76.688V88.156h-76.688v76.688zM214 167h81V86h-81v81z" fill="#444445"/><path fill="#FFF" d="M217 150h75v-7h-75z"/><path d="M171.898 56.377c-.028 8.657-10.67 15.652-23.77 15.623l-.458-.001c-13.1-.029-23.698-7.07-23.67-15.728l.102-31.648c.028-8.657 10.67-15.652 23.77-15.623l.458.001c13.1.03 23.698 7.07 23.67 15.728l-.102 31.648z" fill="#FBC4B5"/><path d="M143.012 9H143v63c15.934-.04 28.841-7.006 28.875-15.62L172 24.727c.034-8.657-12.945-15.7-28.988-15.728" fill="#FED4C6"/><path d="M147.292 9.744c-12.824 0-23.265 6.86-23.293 15.315l-.102 31.778c-.013 4.088 2.387 7.943 6.759 10.853 4.4 2.93 10.266 4.552 16.514 4.565l.459.001h.08c12.824 0 23.265-6.859 23.292-15.315h.448-.448l.102-31.778c.013-4.088-2.388-7.943-6.759-10.853-4.4-2.93-10.266-4.552-16.514-4.565l-.458-.001h-.08zM147.708 73h-.082l-.458-.001c-6.451-.015-12.514-1.694-17.074-4.729-4.588-3.055-7.108-7.116-7.094-11.435l.103-31.778C123.13 16.192 133.975 9 147.292 9h.54c6.451.015 12.514 1.695 17.074 4.73 4.588 3.055 7.108 7.116 7.094 11.435l-.102 31.778C171.869 65.808 161.025 73 147.708 73z" fill="#464647"/><path d="M147.792 9.734h.058l-.058-.307v.307zM125.844 19.3c-1.2 1.837-1.868 3.855-1.874 5.97l-.103 31.354c-.006 1.83.477 3.615 1.41 5.29-.911-1.674-1.383-3.458-1.377-5.291l.103-31.354c.007-2.114.662-4.13 1.84-5.969zm46.144 37.855c-.088 1.968-.738 3.847-1.847 5.568 1.21-1.844 1.883-3.87 1.89-5.995l.102-31.354c.006-1.833-.478-3.62-1.414-5.296.914 1.676 1.387 3.462 1.382 5.297l-.102 30.926h.017l-.002.854h-.026zm-24.196-46.568c-12.614 0-22.897 6.587-22.923 14.685l-.103 31.354c-.013 3.886 2.326 7.562 6.584 10.352 4.343 2.845 10.139 4.419 16.32 4.432l.54.001c12.612 0 22.895-6.587 22.921-14.685l.002-.426.101-30.928c.013-3.886-2.325-7.562-6.583-10.352-4.344-2.845-10.14-4.419-16.321-4.433h-.538zm.359 61.678l.058.307v-.307h-.058zm.058.734l-.543-.001c-6.552-.014-12.718-1.697-17.359-4.737-4.726-3.097-7.321-7.23-7.307-11.64l.103-31.354C123.133 16.298 134.208 9 147.792 9h.542c6.552.015 12.717 1.698 17.359 4.738 4.726 3.096 7.321 7.23 7.307 11.64l-.103 31.354C172.868 65.702 161.793 73 148.21 73z" fill="#464647"/><path d="M134 37.504a1.5 1.5 0 11-3-.008 1.5 1.5 0 013 .008M151 37.504a1.5 1.5 0 11-3-.008 1.5 1.5 0 013 .008" fill="#464647"/><path d="M152.5 43c-2.485 0-4.5 1.12-4.5 2.5s2.015 2.5 4.5 2.5 4.5-1.12 4.5-2.5-2.015-2.5-4.5-2.5M131.5 43c-2.485 0-4.5 1.12-4.5 2.5s2.015 2.5 4.5 2.5 4.5-1.12 4.5-2.5-2.015-2.5-4.5-2.5" fill="#D77F78"/><path d="M170 33s7.984.167 8 5.144c.016 4.977-7.968 4.856-7.968 4.856L170 33z" fill="#FED4C6"/><path d="M170.928 31.027c-.305.048-.558.161-.729.363-.194.23-.26.554-.136.822.127.276.432.457.748.53.806.186 1.596.12 2.39.444 1.783.726 2.874 2.276 2.879 3.956.004 1.071-.402 2.16-1.272 2.947-.487.44-1.104.722-1.756.89-.569.145-1.588.036-2.054.338-.362.235-.374.716-.35 1.124.005.078.01.158.046.23.333.663 2.117.14 2.63.007 1.047-.272 2.051-.723 2.856-1.405 1.212-1.025 1.824-2.415 1.82-4.136-.007-2.005-.982-3.81-2.83-4.897-.755-.444-2.956-1.413-4.242-1.213" fill="#464647"/><path d="M172 34.012s2.96-.404 3 3.481c.037 3.621-2.987 3.507-2.987 3.507L172 34.012z" fill="#FBC4B5"/><path d="M142.063 40c.002 1.31.005 1.729.007 3.039a2.57 2.57 0 00-.903.42 2.893 2.893 0 00-1.158 2.07c-.07.842.28 1.73.913 2.176.635.447 1.532.388 2.078-.19L142.063 40z" fill="#FED4C6"/><path d="M141.852 48a1.48 1.48 0 01-.929-.34c-.618-.496-.986-1.495-.914-2.487.066-.917.482-1.774 1.113-2.294a2.37 2.37 0 01.592-.36l-.006-2.517.627-.002.007 3.236-.255.07c-.231.063-.45.18-.65.344-.451.372-.76.99-.805 1.614-.046.645.194 1.296.6 1.62a.97.97 0 001.362-.13l.406.68c-.31.373-.726.566-1.148.566" fill="#424243"/><path d="M188 80.848c-4.127-7.374-10.576-10.846-16.733-9.599-3.09.626-6.018 1.86-8.634 3.742L144 88.4 155.456 104 188 80.848z" fill="#FB8D62"/><path d="M171.408 92.285l-15.265 10.787-10.272-13.894 17.825-12.739c2.458-1.757 5.25-2.96 8.297-3.573 5.096-1.025 10.281 1.43 14.019 6.487.414.56.81 1.153 1.186 1.775l-1.421 1.004c-.32.226-.344.727-.056 1.118.287.388.776.52 1.094.297l1.927-1.362c.282-.199.343-.625.134-.995-4.19-7.447-10.888-11.254-17.47-9.93-3.215.647-6.16 1.915-8.753 3.768l-18.4 13.15a.634.634 0 00-.252.496.982.982 0 00.2.619l11.312 15.301c.288.388.776.521 1.093.297l15.84-11.192c.319-.225.344-.726.055-1.117-.287-.389-.776-.52-1.093-.297" fill="#464647"/><path d="M173.919 70.518c-.837 0-1.678.084-2.516.258-3.143.649-6.022 1.92-8.555 3.778l-18.19 13.336c-.088.064-.139.173-.145.307a.756.756 0 00.15.464l11.183 15.519c.197.273.53.385.724.243l15.66-11.35a.371.371 0 00.14-.248.732.732 0 00-.144-.524c-.198-.274-.528-.385-.724-.243l-15.299 11.09-10.455-14.51 17.83-13.072a21.178 21.178 0 018.302-3.667c5.072-1.049 10.35 1.45 14.118 6.68.415.576.813 1.188 1.186 1.82l.12.204-1.596 1.157a.374.374 0 00-.141.247.738.738 0 00.143.525c.198.273.529.384.724.243l1.906-1.382c.172-.124.197-.42.058-.674-3.552-6.476-8.934-10.201-14.48-10.201M156.372 105c-.34 0-.7-.184-.94-.516l-11.183-15.52a1.264 1.264 0 01-.247-.79.906.906 0 01.356-.702l18.19-13.336c2.593-1.902 5.538-3.202 8.753-3.867 6.623-1.367 13.346 2.541 17.546 10.2.267.487.179 1.065-.207 1.344l-1.906 1.381c-.427.31-1.072.148-1.437-.359a1.243 1.243 0 01-.235-.91.882.882 0 01.348-.585l1.213-.88a22.632 22.632 0 00-1.039-1.576c-3.646-5.062-8.729-7.485-13.6-6.48a20.666 20.666 0 00-8.104 3.58l-17.415 12.769 9.854 13.675 14.885-10.79c.427-.31 1.071-.149 1.437.358.198.275.284.606.236.91a.885.885 0 01-.348.586l-15.659 11.351a.844.844 0 01-.498.157" fill="#464647"/><path d="M143.848 90l-20.494 11.67a12.15 12.15 0 01-7.365 1.512l-42.843-4.808L71 111.436l48.098 5.486c1.88.214 3.784-.013 5.558-.662L155 105.158 143.848 90z" fill="#FED4C6"/><path d="M72.464 110.32l47.033 5.461a10.982 10.982 0 005.07-.614l29.051-10.823-9.77-13.52-19.681 11.41a13.131 13.131 0 01-8.025 1.678L74.27 99.128l-1.807 11.192zm48.28 7.68c-.499 0-.997-.029-1.492-.086L70 112.194l2.49-15.43 43.892 5.015c2.315.265 4.7-.234 6.72-1.404L144.445 88 157 105.373l-31.692 11.807c-1.457.543-3.01.82-4.564.82z" fill="#424243"/><path d="M62.034 103.571c-.481 6.33 4.263 11.878 10.595 12.39 6.333.514 11.857-4.202 12.337-10.532.48-6.33-4.262-11.878-10.595-12.39-6.333-.514-11.857 4.202-12.337 10.532" fill="#FED4C6"/><path d="M73.424 95.068c-2.47 0-4.829.828-6.72 2.374-2.101 1.717-3.374 4.115-3.583 6.753-.433 5.458 3.871 10.26 9.594 10.704 2.779.213 5.47-.616 7.581-2.341 2.101-1.717 3.373-4.116 3.582-6.753.433-5.458-3.87-10.26-9.592-10.704a11.15 11.15 0 00-.862-.033M73.58 117c-.341 0-.683-.013-1.028-.04-6.872-.533-12.038-6.331-11.515-12.927.254-3.2 1.794-6.107 4.335-8.185 2.531-2.068 5.757-3.065 9.078-2.808 6.872.533 12.038 6.332 11.515 12.926-.254 3.201-1.794 6.108-4.335 8.185-2.27 1.855-5.096 2.849-8.05 2.849" fill="#424243"/><path d="M69.02 112.76c6.766.514 12.683-4.398 13.216-10.97.2-2.455-.382-4.795-1.54-6.79 2.877 2.396 4.586 6.04 4.266 9.993-.533 6.572-6.45 11.484-13.217 10.97-4.238-.321-7.803-2.696-9.745-6.04a12.4 12.4 0 007.02 2.838" fill="#FBC4B5"/><path d="M62.898 104.177c-.442 5.58 3.954 10.488 9.8 10.942 5.845.453 10.961-3.717 11.404-9.296.442-5.58-3.954-10.489-9.8-10.942-5.845-.454-10.961 3.717-11.404 9.296m-1.862-.144c.524-6.595 6.54-11.527 13.413-10.994 6.873.533 12.037 6.333 11.515 12.928-.523 6.595-6.54 11.527-13.412 10.994-6.872-.534-12.038-6.333-11.516-12.928" fill="#424243"/><path d="M73.435 94.221c-5.327 0-9.84 4.079-10.248 9.446a10.217 10.217 0 002.47 7.482 10.36 10.36 0 007.063 3.595c5.69.464 10.663-3.763 11.093-9.411a10.213 10.213 0 00-2.47-7.483 10.358 10.358 0 00-7.062-3.595 10.398 10.398 0 00-.846-.034m.131 20.88a10.671 10.671 0 01-8.143-3.738 10.54 10.54 0 01-2.548-7.721c.443-5.826 5.573-10.18 11.43-9.708a10.668 10.668 0 017.272 3.702 10.542 10.542 0 012.548 7.722c-.42 5.535-5.071 9.743-10.559 9.743m-.133-22.779c-6.279 0-11.6 4.836-12.085 11.196-.51 6.693 4.527 12.578 11.228 13.12 6.698.54 12.566-4.464 13.076-11.157.51-6.692-4.527-12.578-11.227-13.119-.333-.027-.664-.04-.992-.04M73.567 117c-.336 0-.675-.013-1.015-.04-6.873-.556-12.039-6.597-11.516-13.467.524-6.87 6.542-12.004 13.414-11.452 6.871.555 12.037 6.595 11.514 13.465-.498 6.53-5.957 11.494-12.397 11.494" fill="#424243"/><path d="M78 104a4 4 0 11-8 0 4 4 0 018 0" fill="#808182"/><path d="M75 102.16a2.843 2.843 0 00-2.84 2.84 2.843 2.843 0 002.84 2.84 2.843 2.843 0 002.84-2.84 2.843 2.843 0 00-2.84-2.84m0 7.84c-2.757 0-5-2.243-5-5s2.243-5 5-5 5 2.243 5 5-2.243 5-5 5" fill="#424243"/><path d="M144 57.5c0 1.38-.672 2.5-1.5 2.5s-1.5-1.12-1.5-2.5.672-2.5 1.5-2.5 1.5 1.12 1.5 2.5" fill="#FFF"/><path d="M144.75 302H11.25c-1.237 0-2.25-.9-2.25-2s1.013-2 2.25-2h133.5c1.237 0 2.25.9 2.25 2s-1.013 2-2.25 2M156.692 302h-3.384c-1.27 0-2.308-.9-2.308-2s1.038-2 2.308-2h3.384c1.27 0 2.308.9 2.308 2s-1.039 2-2.308 2M267.612 311H138.388c-1.314 0-2.388-.9-2.388-2s1.074-2 2.388-2h129.224c1.313 0 2.388.9 2.388 2s-1.075 2-2.388 2M283.778 303h-5.556c-1.222 0-2.222-.9-2.222-2s1-2 2.222-2h5.556c1.222 0 2.222.9 2.222 2s-1 2-2.222 2" fill="#464647"/><path d="M126.082 31.54c3.207.927 6.622.273 9.892-.385l23.403-4.711c1.853-.373 3.867-.726 5.554.142 2.09 1.077 3.265 3.844 5.584 4.17 1.694-2.455 1.863-5.793.89-8.628-.975-2.833-2.972-5.204-5.268-7.079-5.392-4.404-12.496-6.29-19.392-6.024-6.897.265-13.605 2.558-19.747 5.774-6.85 3.586-11.125 13.792-.916 16.741" fill="#E3D369"/><path d="M148.064 10.7c-.425 0-.852.008-1.281.024-6.152.228-12.71 2.08-19.493 5.505-4.002 2.021-6.875 6.214-6.54 9.545.244 2.417 2.132 4.183 5.46 5.11 3.096.863 6.523.198 9.545-.39l23.529-4.566c1.734-.336 4.105-.796 6.138.213 1.015.504 1.796 1.294 2.55 2.058.746.754 1.457 1.473 2.284 1.774 1.165-1.975 1.354-4.644.473-7.113-.83-2.331-2.52-4.512-5.02-6.481-4.676-3.683-10.901-5.679-17.645-5.679M129.504 33c-1.256 0-2.518-.133-3.762-.48-4.01-1.117-6.392-3.453-6.707-6.577-.408-4.045 2.803-8.871 7.47-11.227 7.007-3.538 13.808-5.452 20.213-5.69 7.648-.288 14.773 1.855 20.067 6.025 2.757 2.172 4.631 4.61 5.57 7.246 1.136 3.185.752 6.685-1.002 9.135l-.302.423-.52-.071c-1.642-.222-2.735-1.329-3.793-2.398-.686-.695-1.335-1.351-2.091-1.727-1.392-.691-3.102-.437-5.03-.063l-23.529 4.567c-2.068.401-4.315.837-6.584.837" fill="#424243"/><path d="M120 25h51v-5.507C171 9.28 163.084 1 153.32 1h-15.64C127.916 1 120 9.28 120 19.493V25z" fill="#FB8D62"/><path d="M121.183 22.897h50.634v-4.202c0-9.149-7.724-16.592-17.218-16.592h-16.198c-9.494 0-17.218 7.443-17.218 16.592v4.202zM174 25h-55v-6.305C119 8.386 127.703 0 138.401 0H154.6C165.297 0 174 8.386 174 18.695V25z" fill="#424243"/><path d="M106.703 26h63.773c.842 0 1.524-.63 1.524-1.41V21h-65.297c-1.492 0-2.703 1.12-2.703 2.5s1.21 2.5 2.703 2.5" fill="#61D4B3"/><path d="M107.771 21.278c-.895 0-1.623.773-1.623 1.722 0 .95.728 1.722 1.623 1.722h63.635c.246 0 .446-.213.446-.474v-2.97h-64.08zM171.406 27H107.77c-2.08 0-3.771-1.794-3.771-4s1.692-4 3.771-4H174v5.248c0 1.518-1.163 2.752-2.594 2.752z" fill="#424243"/><path fill="#FFF" d="M161.953 99L152 85.621 154.05 84 164 97.365z"/><path fill="#EF524E" d="M159.885 100L150 86.543 152.115 85 162 98.457z"/></g></svg>