<svg height="512pt" viewBox="-98 0 512 512" width="512pt" xmlns="http://www.w3.org/2000/svg"><path d="m195.640625 120.714844c0 54.023437-43.792969 97.820312-97.820313 97.820312-54.023437 0-97.820312-43.796875-97.820312-97.820312 0-54.023438 43.796875-97.820313 97.820312-97.820313 54.027344 0 97.820313 43.796875 97.820313 97.820313zm0 0" fill="#ffea84"/><g fill="#ffe046"><path d="m158.742188 44.183594c13.324218 16.714844 21.289062 37.886718 21.289062 60.921875 0 54.027343-43.796875 97.820312-97.820312 97.820312-23.035157 0-44.207032-7.964843-60.921876-21.289062 17.921876 22.484375 45.542969 36.898437 76.53125 36.898437 54.027344 0 97.820313-43.792968 97.820313-97.820312 0-30.988282-14.414063-58.609375-36.898437-76.53125zm0 0"/><path d="m82.421875 55.914062c-8.511719 2.023438-16.398437 5.6875-23.304687 10.636719-2.097657 1.503907-2.371094 4.523438-.542969 6.351563l25.417969 25.417968c1.308593 1.3125 3.550781.382813 3.550781-1.472656v-36.875c0-2.683594-2.507813-4.679687-5.121094-4.058594zm0 0"/><path d="m32.46875 133.492188c1.730469 8.886718 5.238281 17.144531 10.136719 24.394531 1.460937 2.167969 4.546875 2.457031 6.398437.609375l26.421875-26.421875c1.308594-1.3125.382813-3.554688-1.472656-3.554688h-37.394531c-2.625 0-4.59375 2.398438-4.089844 4.972657zm0 0"/><path d="m83.992188 145.582031-23.953126 23.949219c-1.851562 1.855469-1.550781 4.941406.621094 6.410156 6.523438 4.40625 13.863282 7.691406 21.742188 9.570313 2.621094.625 5.144531-1.363281 5.144531-4.054688v-34.402343c-.003906-1.855469-2.246094-2.78125-3.554687-1.472657zm0 0"/><path d="m72.953125 109.359375-24.941406-24.941406c-1.886719-1.890625-5.042969-1.535157-6.472657.71875-4.339843 6.851562-7.464843 14.546875-9.070312 22.777343-.503906 2.585938 1.457031 4.996094 4.085938 4.996094h34.925781c1.855469 0 2.785156-2.242187 1.472656-3.550781zm0 0"/><path d="m103.152344 59.023438v37.824218c0 1.855469 2.242187 2.785156 3.554687 1.472656l27.410157-27.414062c1.886718-1.882812 1.542968-5.035156-.703126-6.460938-7.582031-4.808593-16.199218-8.121093-25.433593-9.539062-2.535157-.386719-4.828125 1.554688-4.828125 4.117188zm0 0"/><path d="m103.152344 128.519531v58.566407c31.648437-2.523438 57.121094-27.25 60.796875-58.566407zm0 0"/><path d="m145.632812 81.46875-27.890624 27.890625c-1.308594 1.308594-.382813 3.550781 1.472656 3.550781h39.871094c2.628906 0 4.589843-2.40625 4.085937-4.988281-1.859375-9.515625-5.742187-18.3125-11.195313-25.917969-1.5-2.097656-4.523437-2.355468-6.34375-.535156zm0 0"/></g><path d="m228.941406 6v145.933594h31.222656v-145.933594c0-3.3125-2.6875-6-6-6h-19.222656c-3.3125 0-6 2.6875-6 6zm0 0" fill="#a4f7c5"/><path d="m247.675781 0v151.933594h12.484375v-145.933594c0-3.3125-2.683594-6-6-6zm0 0" fill="#7af4ab"/><path d="m98.015625 129.230469 8.347656 362.433593c.261719 11.308594 9.5 20.335938 20.808594 20.335938h161.84375c11.335937 0 20.589844-9.074219 20.808594-20.40625l7.078125-362.390625c.089844-4.660156-3.664063-8.488281-8.324219-8.488281h-202.238281c-4.671875 0-8.429688 3.847656-8.324219 8.515625zm0 0" fill="#dfedff"/><path d="m302.496094 120.714844-7.238282 370.878906c-.222656 11.332031-9.472656 20.40625-20.808593 20.40625h14.566406c11.335937 0 20.589844-9.074219 20.808594-20.40625l7.078125-362.390625c.089844-4.660156-3.664063-8.488281-8.324219-8.488281zm0 0" fill="#c0dbff"/><path d="m137.175781 472.648438-7.234375-312.195313c-.109375-4.671875 3.648438-8.519531 8.320313-8.519531h138.398437c4.660156 0 8.414063 3.824218 8.324219 8.484375l-5.933594 312.195312c-.085937 4.535157-3.789062 8.167969-8.324219 8.167969h-125.226562c-4.523438 0-8.21875-3.609375-8.324219-8.132812zm0 0" fill="#ffea84"/><path d="m263.984375 151.933594-6.25 328.847656h12.992187c4.535157 0 8.234376-3.632812 8.324219-8.167969l5.933594-312.195312c.089844-4.65625-3.664063-8.480469-8.324219-8.480469h-12.675781zm0 0" fill="#ffe046"/></svg>