<?xml version="1.0" encoding="iso-8859-1"?>
<!-- Generator: Adobe Illustrator 19.0.0, SVG Export Plug-In . SVG Version: 6.00 Build 0)  -->
<svg version="1.1" id="Layer_1" xmlns="http://www.w3.org/2000/svg" xmlns:xlink="http://www.w3.org/1999/xlink" x="0px" y="0px"
	 viewBox="0 0 512 512" style="enable-background:new 0 0 512 512;" xml:space="preserve">
<g>
	<path style="fill:#FFB657;" d="M478.915,291.622c0.652-33.66-21.272-67.474-65.755-93.157
		c-87.311-50.409-228.413-50.404-315.156,0.005c-43.232,25.124-64.797,58.026-64.751,90.953c0-0.106-0.006-0.211-0.005-0.317
		l-0.191,67.437c-0.094,33.247,21.849,66.543,65.785,91.909c87.311,50.409,228.413,50.412,315.156,0.002
		c43.093-25.043,64.665-57.817,64.758-90.641l0.191-67.438C478.944,290.794,478.924,291.207,478.915,291.622z"/>
	<path style="fill:#FFB657;" d="M478.945,290.379l-0.191,67.438c-0.093,32.823-21.664,65.598-64.758,90.641
		c-86.743,50.409-227.845,50.406-315.156-0.002c-43.936-25.366-65.879-58.664-65.785-91.909l0.191-67.438
		c-0.094,33.247,21.849,66.543,65.785,91.909c87.311,50.409,228.413,50.412,315.156,0.002
		C457.28,355.976,478.852,323.203,478.945,290.379z"/>
</g>
<path style="fill:#FEDAAA;" d="M413.16,198.465c87.311,50.409,87.77,132.144,1.027,182.554s-227.845,50.406-315.156-0.002
	s-87.77-132.137-1.027-182.546S325.849,148.057,413.16,198.465z"/>
<path style="fill:#FFA834;" d="M414.187,381.019c-20.551,11.943-44.156,21.051-69.371,27.335v67.391
	c25.143-6.282,48.681-15.376,69.18-27.289c43.093-25.043,64.665-57.817,64.758-90.641l0.191-67.438
	C478.852,323.203,457.28,355.976,414.187,381.019z"/>
<g>
	<polygon style="fill:#FEDA44;" points="255.186,151.53 0.041,299.804 0,314.165 256.814,462.436 511.959,314.162 512,299.802 	"/>
	<polygon style="fill:#FEDA44;" points="512,299.802 511.959,314.162 256.814,462.436 256.855,448.076 	"/>
</g>
<polygon style="fill:#FFDE56;" points="256.855,448.076 256.814,462.436 0,314.164 0.041,299.804 "/>
<polygon style="fill:#FFE577;" points="512,299.802 256.855,448.076 0.041,299.804 255.186,151.53 "/>
<g>
	<path style="fill:#884D01;" d="M478.914,234.419c0.652-33.659-21.272-67.473-65.755-93.156
		c-87.31-50.408-228.412-50.404-315.155,0.005c-43.232,25.124-64.796,58.025-64.751,90.953c0-0.106-0.006-0.211-0.005-0.317
		l-0.191,46.755c-0.094,33.247,21.849,66.543,65.785,91.909c87.31,50.408,228.412,50.412,315.155,0.002
		c43.093-25.043,64.664-57.816,64.757-90.64l0.191-46.755C478.943,233.591,478.923,234.004,478.914,234.419z"/>
	<path style="fill:#884D01;" d="M478.944,233.176l-0.191,46.755c-0.093,32.823-21.664,65.598-64.757,90.64
		c-86.742,50.409-227.844,50.406-315.155-0.002c-43.936-25.366-65.879-58.663-65.785-91.909l0.191-46.755
		c-0.094,33.247,21.849,66.543,65.785,91.909c87.31,50.408,228.412,50.411,315.155,0.002
		C457.279,298.773,478.851,265.999,478.944,233.176z"/>
</g>
<path style="fill:#A66206;" d="M413.159,141.262c87.31,50.408,87.77,132.144,1.027,182.553s-227.844,50.406-315.155-0.002
	s-87.77-132.136-1.027-182.546S325.849,90.854,413.159,141.262z"/>
<path style="fill:#B3FA08;" d="M461.456,172.095c-14.107-8.142-40.961-11.351-55.662-19.838
	c-14.694-8.485-20.323-24.032-34.43-32.177c-2.427-1.401-5.105-2.583-8.123-3.473c-21.3-6.281-51.555,3.208-74.657,1.099
	c-23.342-2.127-47.208-16.517-70.526-14.389c-23.078,2.11-37.952,19.99-59.189,26.267c-20.486,6.064-54.369,2.425-71.488,12.374
	c-17.111,9.944-10.719,29.558-21.119,41.445c-10.775,12.327-41.587,20.996-45.162,34.375c-3.589,13.508,21.322,27.291,25.08,40.8
	c3.708,13.379-12.575,30.935-1.661,43.253c1.546,1.746,3.594,3.292,6.022,4.694c14.107,8.145,40.967,11.355,55.662,19.838
	c14.702,8.488,20.325,24.033,34.431,32.177c2.427,1.401,5.104,2.583,8.123,3.472c21.309,6.286,51.555-3.208,74.665-1.103
	c23.334,2.133,47.217,16.522,70.518,14.393c23.093-2.11,37.951-19.99,59.197-26.272c20.495-6.059,54.369-2.425,71.48-12.368
	c17.12-9.948,10.734-29.558,21.128-41.449c10.767-12.322,41.595-20.991,45.153-34.37c3.605-13.508-21.322-27.291-25.072-40.804
	c-3.717-13.375,12.575-30.926,1.653-43.247C465.932,175.043,463.885,173.496,461.456,172.095z"/>
<g>
	<path style="fill:#FE0B37;" d="M471.86,246.496c0.314-16.231-10.258-32.538-31.71-44.922
		c-42.103-24.309-110.147-24.306-151.976,0.002c-20.848,12.116-31.247,27.981-31.225,43.861c0-0.051-0.003-0.102-0.003-0.153
		l-0.092,22.547c-0.045,16.032,10.536,32.089,31.723,44.321c42.103,24.309,110.147,24.31,151.976,0.001
		c20.781-12.076,31.183-27.881,31.228-43.709l0.092-22.547C471.874,246.097,471.864,246.297,471.86,246.496z"/>
	<path style="fill:#FE0B37;" d="M471.874,245.897l-0.092,22.547c-0.045,15.828-10.447,31.633-31.228,43.709
		c-41.829,24.309-109.873,24.307-151.976-0.001c-21.187-12.233-31.768-28.289-31.723-44.321l0.092-22.547
		c-0.045,16.032,10.536,32.089,31.723,44.321c42.103,24.309,110.147,24.31,151.976,0.001
		C461.427,277.53,471.83,261.726,471.874,245.897z"/>
</g>
<path style="fill:#FF3E61;" d="M440.151,201.574c42.103,24.308,42.326,63.723,0.495,88.033s-109.873,24.307-151.976-0.001
	c-42.103-24.309-42.326-63.72-0.495-88.028S398.048,177.265,440.151,201.574z"/>
<g>
	<path style="fill:#FE0B37;" d="M256.841,246.496c0.315-16.231-10.258-32.538-31.71-44.922
		c-42.103-24.309-110.147-24.306-151.976,0.002c-20.848,12.116-31.247,27.981-31.225,43.861c0-0.051-0.003-0.102-0.003-0.153
		l-0.092,22.547c-0.045,16.032,10.536,32.089,31.723,44.321c42.103,24.309,110.147,24.31,151.976,0.001
		c20.781-12.076,31.183-27.881,31.228-43.709l0.092-22.547C256.855,246.097,256.844,246.297,256.841,246.496z"/>
	<path style="fill:#FE0B37;" d="M256.855,245.897l-0.092,22.547c-0.045,15.828-10.447,31.633-31.228,43.709
		c-41.829,24.309-109.873,24.307-151.976-0.001c-21.187-12.233-31.768-28.289-31.723-44.321l0.092-22.547
		c-0.045,16.032,10.536,32.089,31.723,44.321c42.103,24.309,110.147,24.31,151.976,0.001
		C246.408,277.53,256.81,261.726,256.855,245.897z"/>
</g>
<path style="fill:#FF3E61;" d="M225.132,201.574c42.103,24.308,42.326,63.723,0.495,88.033s-109.873,24.307-151.976-0.001
	c-42.103-24.309-42.326-63.72-0.495-88.028S183.029,177.265,225.132,201.574z"/>
<path style="fill:#FFB657;" d="M39.114,170.871c1.917-4.26,4.273-10.035,6.39-14.199c3.021-5.938,7.219-13.781,10.724-19.448
	c2.415-3.904,5.719-9.064,8.441-12.76c4.198-5.699,9.914-13.229,14.61-18.526c2.974-3.354,6.952-7.828,10.189-10.93
	c5.743-5.499,13.541-12.703,19.717-17.711c3.353-2.72,7.923-6.233,11.504-8.645c6.035-4.068,14.251-9.244,20.521-12.94l0,0
	c7.109-3.725,16.626-8.663,24.034-11.752c10.921-4.555,15.641-5.999,26.389-9.275c3.743-1.141,8.824-2.348,12.637-3.225
	c3.268-0.751,7.66-1.602,10.96-2.197c6.564-1.185,13.931-2.122,21.894-2.788c3.185-0.266,7.441-0.565,10.637-0.606
	c3.132-0.04,7.307-0.158,10.439-0.126c3.132,0.031,7.303,0.235,10.432,0.338c6.976,0.228,16.881,1.546,21.112,2.11
	c4.283,0.571,13.92,2.275,21.935,4.279c9.077,2.27,14.731,4.021,23.351,7.045c4.078,1.43,9.425,3.592,13.399,5.293
	c3.631,1.554,8.368,3.861,11.937,5.552c4.842,2.295,11.081,5.804,15.665,8.58c7.324,4.435,16.706,10.975,23.569,16.092
	c4.718,3.518,10.743,8.583,14.987,12.66c5.809,5.58,13.471,13.139,18.692,19.271c5.883,6.91,13.086,16.662,18.253,24.121
	c4.096,5.912,8.807,14.299,12.151,20.668c3.124,5.951,6.77,14.152,9.378,20.346c17.247,42.709-3.455,89.375-61.668,122.04
	c-88.292,49.544-229.438,48.118-315.257-3.186C40.947,257.963,22.077,212.382,39.114,170.871z"/>
<path style="fill:#FFA834;" d="M473.06,172.099c-2.609-6.194-6.255-14.396-9.378-20.346c-3.343-6.369-8.055-14.756-12.151-20.668
	c-5.168-7.46-12.371-17.212-18.253-24.121c-5.221-6.133-12.884-13.692-18.692-19.271c-4.244-4.077-10.269-9.142-14.987-12.66
	c-6.863-5.118-16.245-11.658-23.569-16.092c-4.583-2.775-10.823-6.286-15.664-8.58c-0.032-0.015-0.071-0.033-0.103-0.049
	c4.53,3.083,9.057,6.316,12.826,9.127c4.719,3.518,10.743,8.583,14.987,12.66c5.809,5.58,13.471,13.139,18.691,19.271
	c5.884,6.91,13.086,16.662,18.254,24.121c4.096,5.912,8.809,14.299,12.151,20.668c3.124,5.952,6.77,14.152,9.379,20.346
	c17.247,42.709-3.456,89.375-61.668,122.04c-83.316,46.752-213.674,48.094-300.218,4.989c3.638,2.534,7.447,5.013,11.471,7.42
	c85.821,51.303,226.966,52.73,315.258,3.186C469.604,261.475,490.307,214.809,473.06,172.099z"/>
<g>
</g>
<g>
</g>
<g>
</g>
<g>
</g>
<g>
</g>
<g>
</g>
<g>
</g>
<g>
</g>
<g>
</g>
<g>
</g>
<g>
</g>
<g>
</g>
<g>
</g>
<g>
</g>
<g>
</g>
</svg>
