<svg height="512" viewBox="0 0 512 512" width="512" xmlns="http://www.w3.org/2000/svg"><g id="Flat"><path d="m384 144a119.956 119.956 0 1 1 -57.47-102.44 120.005 120.005 0 0 1 57.47 102.44z" fill="#ffb531"/><path d="m384 144a120.013 120.013 0 0 1 -235.17 33.78 126.185 126.185 0 0 0 52.41 11.32 126.975 126.975 0 0 0 126.97-126.97 125.68 125.68 0 0 0 -1.68-20.57 119.923 119.923 0 0 1 57.47 102.44z" fill="#ffa912"/><path d="m320 224a119.956 119.956 0 1 1 -57.47-102.44 120.005 120.005 0 0 1 57.47 102.44z" fill="#f59898"/><path d="m320 224a120.013 120.013 0 0 1 -235.17 33.78 126.973 126.973 0 0 0 179.38-115.65 125.68 125.68 0 0 0 -1.68-20.57 119.923 119.923 0 0 1 57.47 102.44z" fill="#ed9191"/><path d="m136.412 232c-13.425.224-24.412-11.119-24.412-24.546v-7.454a8 8 0 0 1 8-8 8 8 0 0 1 8 8v7.717a8.19 8.19 0 0 0 7.452 8.265 8.009 8.009 0 0 0 8.548-7.982v-8a8 8 0 0 1 8-8 8 8 0 0 1 8 8v8a24.028 24.028 0 0 1 -23.588 24z" fill="#eb8484"/><path d="m320 216 111.392-178.227a29.3 29.3 0 0 1 24.85-13.773h2.458a29.3 29.3 0 0 1 29.3 29.305 29.307 29.307 0 0 1 -6.889 18.876l-121.111 143.819z" fill="#f2dec2"/><path d="m432 248a119.94 119.94 0 1 1 -64.16-106.24 120.005 120.005 0 0 1 64.16 106.24z" fill="#7a432a"/><path d="m432 248a120.008 120.008 0 0 1 -237.76 23.15 153.205 153.205 0 0 0 173.6-129.39 119.98 119.98 0 0 1 64.16 106.24z" fill="#6e3c26"/><path d="m416 312-3.27 24-20.73 152h-272l-20.73-152-3.27-24z" fill="#f2dec2"/><path d="m416 312-3.27 24h-313.46l-3.27-24z" fill="#ead7bc"/><path d="m125.825 343.921h16v17.25h-16z" fill="#fae5c9" transform="matrix(.991 -.135 .135 .991 -46.412 21.317)"/><path d="m134.672 378.496h16v77.861h-16z" fill="#fae5c9" transform="matrix(.991 -.135 .135 .991 -55.098 23.108)"/><rect fill="#f2dec2" height="32" rx="16" width="368" x="72" y="280"/><path d="m360.412 224c-13.425.224-24.412-11.119-24.412-24.546v-7.454a8 8 0 0 1 8-8 8 8 0 0 1 8 8v7.717a8.19 8.19 0 0 0 7.452 8.265 8.009 8.009 0 0 0 8.548-7.982v-8a8 8 0 0 1 8-8 8 8 0 0 1 8 8v8a24.028 24.028 0 0 1 -23.588 24z" fill="#5c2e1a"/><path d="m248 48h16v16h-16z" fill="#f77c00"/><path d="m296 80h16v16h-16z" fill="#f77c00"/><path d="m176 144h16v16h-16z" fill="#eb8484"/><path d="m248 200h16v16h-16z" fill="#8a5036"/><path d="m288 168h16v16h-16z" fill="#8a5036"/><path d="m304.412 408c-13.425.224-24.412-11.119-24.412-24.546v-7.454a8 8 0 0 1 8-8 8 8 0 0 1 8 8v7.717a8.19 8.19 0 0 0 7.452 8.265 8.009 8.009 0 0 0 8.548-7.982v-8a8 8 0 0 1 8-8 8 8 0 0 1 8 8v8a24.028 24.028 0 0 1 -23.588 24z" fill="#e5d2b8"/><path d="m288 272v32a16 16 0 0 0 32 0v-8a16 16 0 0 1 32 0v24a16 16 0 0 0 32 0v-48z" fill="#6e3c26"/></g></svg>